<?xml version="1.0" encoding="UTF-8"?>
<svg version="1.1" xmlns="http://www.w3.org/2000/svg" width="225" height="225">
<path d="M0 0 C74.25 0 148.5 0 225 0 C225 74.25 225 148.5 225 225 C150.75 225 76.5 225 0 225 C0 150.75 0 76.5 0 0 Z M30.25 35.1875 C28.55683887 37.64258364 28.5612898 39.07526531 29 42 C31.21162782 44.76552862 33.54011785 45.81362424 36.81640625 47.04296875 C37.74517578 47.39423828 38.67394531 47.74550781 39.63085938 48.10742188 C40.59830078 48.46384766 41.56574219 48.82027344 42.5625 49.1875 C43.53380859 49.55552734 44.50511719 49.92355469 45.50585938 50.30273438 C50.13234844 52.2381495 50.13234844 52.2381495 55 53 C55.13390137 53.55550537 55.26780273 54.11101074 55.40576172 54.68334961 C57.76401959 63.88303956 60.96903903 72.77854077 64.12579346 81.72650146 C65.136758 84.59587215 66.14034844 87.46772949 67.14208984 90.34033203 C71.19217298 101.94218809 71.19217298 101.94218809 75.38064575 113.49455261 C76.06417511 115.34568655 76.7390727 117.20000087 77.41357422 119.05444336 C78.19958781 121.20893164 79.00235889 123.35740787 79.82470703 125.49829102 C82.28618802 132.30042928 82.28618802 132.30042928 80.9453125 135.578125 C80.30335937 136.37734375 79.66140625 137.1765625 79 138 C77.59750315 141.06553079 76.43655705 144.22061376 75.25 147.375 C74.92128906 148.2 74.59257813 149.025 74.25390625 149.875 C72.28795949 155.10093442 71.67714044 158.54687894 73 164 C74.98 164.33 76.96 164.66 79 165 C78.484375 166.134375 77.96875 167.26875 77.4375 168.4375 C75.69816561 173.17049647 75.4253664 177.1722772 77 182 C79.54465117 186.10578685 82.44843063 189.22763386 87 191 C92.21364875 191.6773018 96.65482068 191.63590295 101.4375 189.375 C105.07400685 186.00457902 107.67195844 183.47321219 108.34765625 178.37890625 C108.53957518 172.2291561 107.91732097 169.83464195 105 164 C115.89 164 126.78 164 138 164 C137.01 166.64 136.02 169.28 135 172 C134.28995693 177.78177926 135.51454815 181.48348201 139 186 C144.16849138 190.67625411 147.39518762 191.35785073 154.23828125 191.27734375 C159.41457136 190.75751829 161.92918574 188.1271729 165.375 184.5 C167.72530457 179.43780554 167.82118478 174.49675939 167 169 C165.57837902 166.19376722 165.57837902 166.19376722 164 164 C165.11375 164.04125 166.2275 164.0825 167.375 164.125 C171.04366025 164.41121859 171.04366025 164.41121859 173 162 C172.90888062 159.46048456 172.90888062 159.46048456 172 157 C168.21744376 154.47829584 165.23514232 154.73279308 160.85668945 154.77294922 C160.02719788 154.77265717 159.1977063 154.77236511 158.34307861 154.77206421 C155.59970663 154.77345821 152.85660582 154.78902268 150.11328125 154.8046875 C148.21184945 154.80841738 146.31041573 154.81126447 144.40898132 154.81326294 C139.40301207 154.82090135 134.39715877 154.84055166 129.39123535 154.8626709 C124.28362598 154.88312483 119.17599789 154.89226369 114.06835938 154.90234375 C104.04552196 154.92379732 94.02277062 154.95793581 84 155 C84.2165625 154.31292969 84.433125 153.62585938 84.65625 152.91796875 C84.9346875 152.01691406 85.213125 151.11585938 85.5 150.1875 C85.7784375 149.29417969 86.056875 148.40085937 86.34375 147.48046875 C87.12788351 144.94426605 87.12788351 144.94426605 87 142 C88.04569656 142.00888245 89.09139313 142.01776489 90.16877747 142.0269165 C100.0128828 142.10792575 109.8569207 142.1679285 119.70128345 142.20724869 C124.76266663 142.2281431 129.8237812 142.25649454 134.88500977 142.30175781 C139.76739334 142.34514948 144.64951821 142.36912313 149.5320797 142.37950897 C151.39687868 142.38691237 153.26166316 142.40136917 155.12635231 142.42292023 C157.73404404 142.45186582 160.34066037 142.45595978 162.94848633 142.45410156 C163.72316254 142.46848267 164.49783875 142.48286377 165.29598999 142.49768066 C169.55228387 142.48793647 169.55228387 142.48793647 172.9364624 140.13442993 C174.203872 137.59084616 175.17016773 135.0846612 176.05859375 132.3828125 C176.62924561 130.66276001 176.62924561 130.66276001 177.21142578 128.90795898 C177.61603027 127.65958252 178.02063477 126.41120605 178.4375 125.125 C178.8666946 123.81507733 179.29622709 122.50526533 179.72607422 121.19555664 C180.90559744 117.59033859 182.0721851 113.9810492 183.2354126 110.37054443 C184.03372773 107.89542976 184.83572397 105.42152778 185.63818359 102.94775391 C187.03766052 98.62919972 188.4272666 94.30757445 189.80984497 89.98358154 C190.35172805 88.29104644 190.89572305 86.599186 191.44186401 84.90802002 C192.21070918 82.52296252 192.96989497 80.13503829 193.7265625 77.74609375 C194.07269844 76.68072136 194.07269844 76.68072136 194.42582703 75.59382629 C195.55267548 71.99893106 196.56353079 68.76730767 196 65 C194.34522901 62.77981865 193.4576077 62.07326326 190.69430256 61.63085651 C189.7826493 61.63362189 188.87099604 61.63638727 187.93171692 61.63923645 C186.88423782 61.63511246 185.83675873 61.63098846 184.75753784 61.6267395 C183.60883209 61.63752533 182.46012634 61.64831116 181.27661133 61.65942383 C180.0667305 61.65898575 178.85684967 61.65854767 177.61030579 61.65809631 C174.29218834 61.65982953 170.97462931 61.67488513 167.65661073 61.69581819 C164.18927798 61.71455906 160.72193796 61.71633337 157.25456238 61.71989441 C150.68847008 61.72922252 144.12252745 61.75384657 137.55650109 61.78394288 C130.08138327 61.81746313 122.60625834 61.8339669 115.13108408 61.84902918 C99.75396935 61.88039554 84.37700397 61.93317081 69 62 C68.87230225 61.39961914 68.74460449 60.79923828 68.61303711 60.18066406 C68.4403833 59.38370117 68.26772949 58.58673828 68.08984375 57.765625 C67.920896 56.97961914 67.75194824 56.19361328 67.57788086 55.38378906 C66.39188301 50.4914853 65.23442769 46.4570585 60.85546875 43.6015625 C57.94891627 42.23326043 55.01655283 41.10618643 52 40 C50.62004938 39.4570741 49.24119793 38.91134864 47.86328125 38.36328125 C46.43046894 37.80268613 44.99687678 37.24407998 43.5625 36.6875 C42.87639648 36.42050293 42.19029297 36.15350586 41.48339844 35.87841797 C35.80818281 33.54542082 35.80818281 33.54542082 30.25 35.1875 Z " fill="#000000" transform="translate(0,0)"/>
<path d="M0 0 C0.9583374 0.04713135 1.9166748 0.0942627 2.90405273 0.14282227 C3.93852539 0.19116211 4.97299805 0.23950195 6.03881836 0.28930664 C7.12743164 0.34538086 8.21604492 0.40145508 9.33764648 0.45922852 C10.43012695 0.51143555 11.52260742 0.56364258 12.64819336 0.61743164 C15.35740405 0.7475684 18.06630794 0.88406276 20.77514648 1.02172852 C20.77514648 4.65172852 20.77514648 8.28172852 20.77514648 12.02172852 C12.85514648 12.02172852 4.93514648 12.02172852 -3.22485352 12.02172852 C-3.22485352 0.03149478 -3.22485352 0.03149478 0 0 Z " fill="#000000" transform="translate(120.224853515625,71.978271484375)"/>
<path d="M0 0 C1.25159912 0.04713135 2.50319824 0.0942627 3.79272461 0.14282227 C4.45719101 0.16643326 5.12165741 0.19004425 5.80625916 0.21437073 C7.93607115 0.29116537 10.06553382 0.37512065 12.19506836 0.45922852 C13.63580627 0.51243345 15.07656141 0.56517394 16.51733398 0.61743164 C20.05596149 0.74680138 23.59430977 0.88259592 27.13256836 1.02172852 C26.14256836 4.65172852 25.15256836 8.28172852 24.13256836 12.02172852 C14.89256836 12.02172852 5.65256836 12.02172852 -3.86743164 12.02172852 C-3.86743164 0.02930621 -3.86743164 0.02930621 0 0 Z " fill="#000000" transform="translate(155.867431640625,71.978271484375)"/>
<path d="M0 0 C10.56 0 21.12 0 32 0 C32 3.63 32 7.26 32 11 C22.43 11 12.86 11 3 11 C0 3 0 3 0 0 Z " fill="#000000" transform="translate(74,73)"/>
<path d="M0 0 C3.97915159 -0.02886984 7.95827653 -0.04675406 11.9375 -0.0625 C13.07380859 -0.07087891 14.21011719 -0.07925781 15.38085938 -0.08789062 C16.46044922 -0.09111328 17.54003906 -0.09433594 18.65234375 -0.09765625 C20.15269165 -0.10551147 20.15269165 -0.10551147 21.68334961 -0.11352539 C24 0 24 0 25 1 C25.14393457 5.33530918 25.04212061 9.66157731 25 14 C18.4 14 11.8 14 5 14 C0 2.25 0 2.25 0 0 Z " fill="#000000" transform="translate(81,95)"/>
<path d="M0 0 C3.81254623 -0.02682792 7.62490612 -0.04675477 11.4375 -0.0625 C12.52611328 -0.07087891 13.61472656 -0.07925781 14.73632812 -0.08789062 C15.77080078 -0.09111328 16.80527344 -0.09433594 17.87109375 -0.09765625 C18.82943115 -0.10289307 19.78776855 -0.10812988 20.77514648 -0.11352539 C23 0 23 0 24 1 C24.14393457 5.33530918 24.04212061 9.66157731 24 14 C16.08 14 8.16 14 0 14 C0 9.38 0 4.76 0 0 Z " fill="#000000" transform="translate(117,95)"/>
<path d="M0 0 C0.91644287 0.00523682 1.83288574 0.01047363 2.77709961 0.01586914 C3.76645508 0.0190918 4.75581055 0.02231445 5.77514648 0.02563477 C6.81606445 0.03401367 7.85698242 0.04239258 8.92944336 0.05102539 C10.49662109 0.05779297 10.49662109 0.05779297 12.09545898 0.06469727 C14.68600996 0.07652627 17.27644895 0.0930085 19.86694336 0.11352539 C19.35533268 6.04820933 18.7044445 8.43852312 15.86694336 14.11352539 C9.59694336 14.11352539 3.32694336 14.11352539 -3.13305664 14.11352539 C-3.23071289 4.05493164 -3.23071289 4.05493164 -3.13305664 1.11352539 C-2.13305664 0.11352539 -2.13305664 0.11352539 0 0 Z " fill="#000000" transform="translate(155.133056640625,94.886474609375)"/>
<path d="M0 0 C5.28 0 10.56 0 16 0 C16 3.63 16 7.26 16 11 C11.71 11 7.42 11 3 11 C0 3.375 0 3.375 0 0 Z " fill="#000000" transform="translate(90,120)"/>
<path d="M0 0 C7.92 0 15.84 0 24 0 C24 3.63 24 7.26 24 11 C16.08 11 8.16 11 0 11 C0 7.37 0 3.74 0 0 Z " fill="#000000" transform="translate(117,120)"/>
<path d="M0 0 C5.28 0 10.56 0 16 0 C13.125 9.875 13.125 9.875 12 11 C9.98035801 11.07244053 7.95832876 11.08377188 5.9375 11.0625 C4.83277344 11.05347656 3.72804687 11.04445312 2.58984375 11.03515625 C1.30787109 11.01775391 1.30787109 11.01775391 0 11 C0 7.37 0 3.74 0 0 Z " fill="#000000" transform="translate(152,120)"/>
<path d="M0 0 C2.3125 1 2.3125 1 4 3 C4.66976495 6.57207973 4.65750013 9.7623527 2.9375 13 C-0.13215135 14.58433618 -2.61681143 14.36248449 -6 14 C-7.9375 13 -7.9375 13 -9 11 C-9.45971393 8.24171641 -9.51618579 5.7529909 -9 3 C-6.38322654 -0.10136113 -3.9502835 -0.59254252 0 0 Z " fill="#000000" transform="translate(95,168)"/>
<path d="M0 0 C2.3125 1.625 2.3125 1.625 4 4 C4.61195145 7.6717087 4.48706506 9.28813568 2.375 12.375 C0 14 0 14 -3 14.5625 C-6 14 -6 14 -8.4375 11.875 C-10 9 -10 9 -10 5.875 C-8.2672175 0.89325032 -5.23199164 -0.91559854 0 0 Z " fill="#000000" transform="translate(154,168)"/>
</svg>
